# xmcd
#
# Track frame offsets: 
#        150
#        17746
#        33654
#        50745
#        70618
#        91621
#        105776
#        130571
#        150562
#        182291
#        200177
#
# Disc length: 2996 seconds
#
# Revision: 0
# Processed by: cddbd v1.5.2PL0 Copyright (c) Steve Scherf et al.
# Submitted via: ExactAudioCopyFreeDBPlugin 1.0
#
DISCID=7f0bb20b
DTITLE=Bart Walker Band - Who I Am
DYEAR=2011
DGENRE=Blues
TTITLE0=Austin City Limits Sign
TTITLE1=Blues In Technicolor
TTITLE2=Left Turn
TTITLE3=Red Dress
TTITLE4=Favorite Color
TTITLE5=Who I Am
TTITLE6=Right Side Up
TTITLE7=Slow My Roll
TTITLE8=Slow Movin' Train
TTITLE9=Promise Of Lies
TTITLE10=Dimples
EXTD=
EXTT0=
EXTT1=
EXTT2=
EXTT3=
EXTT4=
EXTT5=
EXTT6=
EXTT7=
EXTT8=
EXTT9=
EXTT10=
PLAYORDER=
